<?xml version="1.0" encoding="UTF-8" standalone="no"?>
<!DOCTYPE svg PUBLIC "-//W3C//DTD SVG 20010904//EN"
              "http://www.w3.org/TR/2001/REC-SVG-20010904/DTD/svg10.dtd">

<svg xmlns="http://www.w3.org/2000/svg"
     width="67.7428mm" height="67.7428mm"
     viewBox="0 0 256 256">
<!--
<path id="borderCircle" fill="#005005"
        d="M 113.00,0.21
           C 94.20,3.26 78.53,7.62 62.00,17.45
             27.46,38.00 0.06,80.09 0.00,121.00
             -0.03,142.77 1.11,157.41 9.45,178.00
             24.44,214.99 57.45,242.77 96.00,252.37
             102.90,254.09 111.93,255.91 119.00,256.00
             147.84,256.33 166.16,253.89 192.00,239.69
             205.95,232.03 221.17,218.88 230.42,206.00
             260.96,163.48 265.34,108.85 239.13,63.00
             231.98,50.49 224.22,42.81 214.00,32.96
             202.01,21.42 189.57,13.77 174.00,7.95
             161.98,3.46 147.87,0.02 135.00,0.21
             135.00,0.21 113.00,0.21 113.00,0.21 Z" />
<path id="background" fill="#efebe9"
        d="M 120.00,12.42
           C 110.08,13.84 101.73,14.63 92.00,17.75
             66.94,25.78 44.59,42.77 30.44,65.00
             -8.99,126.94 17.61,210.46 87.00,236.58
             98.29,240.82 113.94,243.86 126.00,244.00
             142.98,244.19 162.70,240.15 178.00,232.74
             193.15,225.40 206.80,215.04 217.54,202.00
             259.12,151.48 250.53,74.84 198.00,35.37
             186.79,26.96 174.49,20.68 161.00,16.86
             149.33,13.55 132.02,10.96 120.00,12.42 Z" />  
-->
<path id="body" fill="#2e7d32"
        d="M 46.00,53.00
           C 47.90,57.80 49.07,59.28 54.00,61.00
             54.00,61.00 54.00,63.00 54.00,63.00
             48.06,64.74 43.13,65.09 40.00,71.00
             46.79,72.65 49.43,71.90 56.00,70.00
             52.96,83.51 51.63,97.27 54.51,111.00
             54.51,111.00 58.92,125.00 58.92,125.00
             59.67,126.83 62.05,129.39 62.02,131.20
             63.96,134.84 66.33,136.27 71.00,138.87
             65.33,136.51 64.69,136.22 61.07,132.96
             58.63,137.10 52.18,148.00 52.18,148.00
             46.41,160.56 43.72,177.39 46.67,191.00
             47.83,196.35 49.85,202.95 54.10,206.61
             60.34,211.98 80.48,215.10 89.00,216.05
             114.06,218.86 149.31,219.53 174.00,214.80
             182.25,213.22 196.66,211.34 202.96,205.78
             211.70,198.05 211.12,184.63 211.00,174.00
             210.86,162.40 204.87,141.07 194.17,134.63
             192.22,135.98 182.53,140.11 182.83,139.22
             182.93,139.57 193.41,134.31 193.51,132.97
             194.77,130.41 197.93,124.00 197.93,124.00
             203.99,108.51 206.81,85.56 200.00,70.00
             206.81,71.97 209.97,72.71 217.00,71.00
             213.87,65.09 208.94,64.74 203.00,63.00
             203.00,63.00 203.00,61.00 203.00,61.00
             207.65,59.08 208.76,57.89 210.00,53.00
             204.68,53.05 201.70,53.17 197.00,56.13
             192.28,59.11 189.86,63.32 184.00,63.89
             178.98,64.38 159.07,60.05 152.00,60.00
             152.00,60.00 136.00,60.00 136.00,60.00
             136.00,60.00 107.00,60.00 107.00,60.00
             97.37,60.02 84.00,62.10 84.00,62.10
             80.34,62.92 76.80,64.38 73.00,64.14
             68.18,63.84 64.89,59.67 61.00,57.10
             55.12,53.23 52.78,53.02 46.00,53.00 Z" />
<path id="lettering" fill="black"
        d="M 91.00,198.00
           C 91.00,198.00 95.00,198.00 95.00,198.00
             95.00,198.00 95.00,183.00 95.00,183.00
             95.00,183.00 105.00,197.00 105.00,197.00
             105.00,197.00 103.00,198.00 103.00,198.00
             103.00,198.00 110.00,198.00 110.00,198.00
             110.00,198.00 110.00,177.00 110.00,177.00
             110.00,177.00 106.00,177.00 106.00,177.00
             106.00,177.00 106.00,192.00 106.00,192.00
             106.00,192.00 96.00,178.00 96.00,178.00
             96.00,178.00 98.00,177.00 98.00,177.00
             98.00,177.00 91.00,177.00 91.00,177.00
             91.00,177.00 91.00,198.00 91.00,198.00 Z
           M 148.00,198.00
           C 148.00,198.00 154.00,198.01 154.00,198.01
             154.00,198.01 154.00,189.92 154.00,190.00
             154.00,190.09 160.00,197.00 160.00,197.00
             160.00,197.00 158.00,198.00 158.00,198.00
             158.00,198.00 166.00,198.00 166.00,198.00
             166.00,198.00 158.00,187.00 158.00,187.00
             158.00,187.00 165.00,177.00 165.00,177.00
             165.00,177.00 156.97,177.00 156.97,177.00
             156.97,177.00 159.00,178.00 159.00,178.00
             159.00,178.00 154.00,186.01 154.00,186.01
             154.00,186.01 154.00,177.00 154.00,177.00
             154.00,177.00 147.99,177.01 147.99,177.01
             147.99,177.01 148.00,198.00 148.00,198.00 Z
           M 122.00,198.00
           C 122.00,198.00 128.01,197.99 128.01,197.99
             128.01,197.99 128.00,191.00 128.00,191.00
             137.89,191.67 142.36,178.57 128.00,177.00
             127.86,177.00 122.06,177.01 122.00,177.00
             122.00,177.00 127.00,180.99 127.00,180.99
             127.00,180.99 132.00,181.00 132.00,181.00
             134.60,182.67 133.58,187.22 131.02,188.00
             131.02,188.00 126.99,188.02 126.99,188.01
             126.99,188.00 127.00,184.94 127.00,183.00
             126.64,182.65 122.00,179.00 122.00,179.00
             122.00,179.00 122.00,198.00 122.00,198.00 Z" />
<path id="hole" fill="black"
		d="M 178.38,70.38
           C 179.75,65.42 76.07,64.03 76.88,70.38
             76.60,77.30 179.12,77.38 178.38,70.38 Z" />

<path id="flower" fill="#ff9d3f"
        d="M 130.00,133.39
           C 132.15,134.91 134.34,150.95 133.00,150.00
             128.92,147.12 124.17,144.80 119.00,145.15
             116.68,145.30 113.63,146.23 113.63,149.09
             113.63,157.35 128.82,156.93 134.00,156.00
             134.00,156.00 132.00,167.00 132.00,167.00
             132.00,167.00 136.98,165.40 136.98,165.40
             136.98,165.40 138.00,147.00 138.00,147.00
             143.34,148.29 149.18,148.16 153.94,145.00
             155.79,143.77 157.91,141.68 157.26,139.22
             156.56,136.62 153.26,136.11 151.00,136.13
             145.29,136.20 141.29,138.53 137.00,142.00
             137.87,143.13 135.60,133.09 134.00,131.00
             144.24,130.43 150.05,122.08 145.43,114.10
             142.78,109.52 137.41,110.91 135.96,107.83
             134.83,105.43 138.86,93.91 128.00,91.55
             118.10,89.39 115.52,98.52 113.87,101.87
             111.83,102.13 108.17,100.68 105.00,101.65
             99.78,103.26 96.54,108.61 97.38,114.00
             98.45,120.82 104.39,123.00 107.78,124.13
             108.83,128.39 106.03,130.39 108.45,134.96
             118.13,144.70 124.74,140.00 130.00,133.39 Z" />
			 
<path id="flowerDetails" fill="#2e7d32"
		d="M 124.04,96.55
           C 134.11,95.80 133.44,107.05 126.96,108.53
             120.63,109.97 115.12,100.58 124.04,96.55 Z
           M 107.04,106.47
           C 116.86,106.00 116.69,116.48 109.96,118.31
             103.15,120.16 98.20,110.18 107.04,106.47 Z
           M 125.00,114.00
           C 127.13,118.35 122.00,121.09 119.00,118.00
             116.96,113.13 123.00,111.09 125.00,114.00 Z
           M 135.01,113.50
           C 144.32,113.91 143.03,124.15 136.96,125.53
             129.86,127.13 124.74,116.54 135.01,113.50 Z
           M 117.04,123.47
           C 126.58,123.01 126.55,134.04 119.96,135.53
             112.97,137.11 108.20,127.19 117.04,123.47 Z
           M 155.00,139.00
           C 151.62,145.33 146.40,144.98 140.00,145.00
             143.38,138.67 148.60,139.02 155.00,139.00 Z
           M 131.00,154.00
           C 124.60,153.98 119.38,154.33 116.01,148.00
             122.13,147.58 127.62,147.67 131.00,154.00 Z" />
			 

</svg>
