<?xml version="1.0" encoding="UTF-8" standalone="no"?>
<!DOCTYPE svg PUBLIC "-//W3C//DTD SVG 20010904//EN"
              "http://www.w3.org/TR/2001/REC-SVG-20010904/DTD/svg10.dtd">

<svg xmlns="http://www.w3.org/2000/svg"
     width="67.7428mm" height="67.7428mm"
     viewBox="0 0 256 256">
<!--
<path id="borderCircle" fill="#005005"
        d="M 113.00,0.21
           C 94.20,3.26 78.53,7.62 62.00,17.45
             27.46,38.00 0.06,80.09 0.00,121.00
             -0.03,142.77 1.11,157.41 9.45,178.00
             24.44,214.99 57.45,242.77 96.00,252.37
             102.90,254.09 111.93,255.91 119.00,256.00
             147.84,256.33 166.16,253.89 192.00,239.69
             205.95,232.03 221.17,218.88 230.42,206.00
             260.96,163.48 265.34,108.85 239.13,63.00
             231.98,50.49 224.22,42.81 214.00,32.96
             202.01,21.42 189.57,13.77 174.00,7.95
             161.98,3.46 147.87,0.02 135.00,0.21
             135.00,0.21 113.00,0.21 113.00,0.21 Z" />
<path id="background" fill="#efebe9"
        d="M 120.00,12.42
           C 110.08,13.84 101.73,14.63 92.00,17.75
             66.94,25.78 44.59,42.77 30.44,65.00
             -8.99,126.94 17.61,210.46 87.00,236.58
             98.29,240.82 113.94,243.86 126.00,244.00
             142.98,244.19 162.70,240.15 178.00,232.74
             193.15,225.40 206.80,215.04 217.54,202.00
             259.12,151.48 250.53,74.84 198.00,35.37
             186.79,26.96 174.49,20.68 161.00,16.86
             149.33,13.55 132.02,10.96 120.00,12.42 Z" />
-->			 
<path id="body" fill="#2e7d32"
        d="M 89.00,155.00
           C 85.83,151.43 55.05,147.08 51.39,146.98
             47.29,144.34 45.07,131.48 35.00,132.56
             17.08,134.48 15.59,164.70 28.91,171.55
             40.15,177.32 44.64,168.64 48.27,165.36
             52.00,170.52 102.09,181.27 104.82,182.07
             111.20,185.38 116.37,199.34 123.00,200.55
             125.11,204.39 206.04,159.51 209.27,150.09
             210.18,147.23 200.36,124.45 200.36,124.45
             195.27,118.73 162.00,45.91 145.91,50.45
             140.73,51.55 65.36,93.27 64.00,100.45
             62.91,107.64 86.30,150.41 89.00,155.00 Z
			M 158.00,56.73
           C 159.27,59.64 154.91,41.09 168.18,38.36
             183.64,38.36 197.62,56.49 201.82,63.18
             206.17,70.14 214.18,87.82 211.27,101.82
             210.00,110.00 204.09,115.39 194.26,111.96
             186.22,114.39 189.74,124.74 200.00,124.00
             215.52,121.80 222.82,112.32 223.00,96.91
             223.27,72.98 207.13,43.30 186.00,31.81
             177.43,27.15 167.84,25.20 159.00,30.27
             154.72,32.73 151.36,36.40 149.36,40.91
             146.18,44.73 147.09,51.09 144.05,51.87
             144.05,51.87 157.09,56.55 158.00,56.73 Z" />
<path id="hole" fill="black"
		d="M 75.09,96.91
           C 76.75,89.25 135.88,55.00 142.00,58.09
             138.25,65.50 83.10,99.52 75.09,96.91 Z" />

<path id="flower" fill="#ff9d3f"
        d="M 114.00,112.00
           C 98.89,115.80 101.29,130.37 110.02,134.00
             113.51,135.45 116.49,134.85 120.00,134.00
             123.96,149.73 142.10,148.06 143.00,132.00
             148.02,135.59 151.06,138.53 154.00,144.00
             149.14,143.36 144.42,143.77 140.11,146.41
             138.00,147.71 135.77,150.06 137.13,152.81
             139.53,157.39 149.48,154.91 153.00,152.81
             154.95,151.81 156.35,150.47 158.00,149.00
             158.00,149.00 162.00,159.00 162.00,159.00
             163.43,158.14 164.99,157.54 165.59,155.78
             166.68,152.58 159.65,141.42 158.00,138.00
             163.70,136.91 169.88,133.11 171.29,127.01
             172.67,121.06 165.85,118.31 158.21,127.01
             156.10,129.42 155.29,131.16 154.00,134.00
             154.00,134.00 146.00,128.00 146.00,128.00
             148.75,125.37 151.69,122.89 152.57,119.00
             155.04,108.05 144.96,103.83 136.00,106.00
             132.20,90.89 117.63,93.29 114.00,102.02
             112.55,105.51 113.15,108.49 114.00,112.00 Z" />
			 
<path id="flowerDetails" fill="#2e7d32"
		d="M 123.04,100.48
           C 133.73,100.19 131.46,111.75 124.99,112.55
             119.03,113.30 114.32,104.10 123.04,100.48 Z
           M 140.04,110.47
           C 150.05,109.99 149.27,120.29 142.98,122.16
             136.46,124.09 130.91,114.31 140.04,110.47 Z
           M 113.04,117.48
           C 123.38,117.20 122.06,128.10 115.91,129.53
             109.03,131.13 104.17,121.16 113.04,117.48 Z
           M 130.00,117.00
           C 133.37,118.84 130.96,125.70 126.00,123.00
             122.84,121.16 125.62,114.66 130.00,117.00 Z
           M 169.00,124.00
           C 167.01,130.75 164.19,134.17 157.00,135.00
             159.50,128.82 162.29,125.43 169.00,124.00 Z
           M 130.10,127.47
           C 140.32,126.97 139.23,138.30 132.96,139.47
             125.85,140.79 121.64,131.24 130.10,127.47 Z
           M 154.00,147.00
           C 155.17,148.70 146.15,154.67 139.00,152.00
             143.15,147.01 147.73,145.99 154.00,147.00 Z" />
			 

</svg>
