<?xml version="1.0" encoding="UTF-8" standalone="no"?>
<!DOCTYPE svg PUBLIC "-//W3C//DTD SVG 20010904//EN"
              "http://www.w3.org/TR/2001/REC-SVG-20010904/DTD/svg10.dtd">

<svg xmlns="http://www.w3.org/2000/svg"
     width="67.7607mm" height="67.7607mm"
     viewBox="0 0 256 256">
<path id="borderCircle" fill="#005005"
	d="M 113.00,0.21
	C 94.20,3.26 78.53,7.62 62.00,17.45
	32.83,34.81 11.81,63.11 3.63,96.00
	1.59,104.20 0.01,112.53 0.00,121.00
	-0.04,143.50 0.73,156.63 9.45,178.00
	24.60,215.11 57.26,242.73 96.00,252.37
	102.90,254.09 111.92,255.91 119.00,256.00
	147.84,256.33 166.16,253.89 192.00,239.69
	205.97,232.01 221.14,218.90 230.42,206.00
	239.11,193.92 245.69,182.24 250.25,168.00
	252.81,160.02 255.90,145.30 256.00,137.00
	256.12,126.34 256.34,116.57 254.57,106.00
	249.36,75.01 233.28,47.59 208.83,27.85
	198.36,19.39 186.60,12.66 174.00,7.95
	161.98,3.46 147.87,0.02 135.00,0.21
	135.00,0.21 113.00,0.21 113.00,0.21 Z" />
<path id="background" fill="#efebe9"
	d="M 118.00,12.28
	C 132.41,10.94 149.23,12.95 163.00,17.34
	177.04,21.83 190.69,28.75 202.00,38.29
	250.11,78.91 258.78,151.63 218.54,201.00
	206.62,215.63 194.76,224.43 178.00,232.75
	160.50,241.44 142.34,244.22 123.00,244.00
	115.66,243.91 104.21,241.71 97.00,239.87
	29.82,222.79 -5.31,147.10 20.45,84.00
	32.12,55.40 55.35,32.06 84.00,20.45
	96.12,15.54 105.33,14.15 118.00,12.28 Z" />
<path id="centerCircle" fill="#ff9d3f"
	d="M 130.16,96.32
	C 91.09,93.27 81.82,155.55 125.16,159.32 165.41,163.57 175.27,102.36 130.16,96.32 Z " />
	
<path id="lightBeams" fill="#ff9d3f"
	d="M 128.19,91.12
	C 137.80,87.78 133.86,28.76 127.96,27.23 122.77,27.58 117.71,86.13 128.19,91.12 Z
	M 57.02,57.05
	C 55.62,65.25 91.21,104.12 102.00,102.00 99.75,91.88 69.25,57.12 57.02,57.05 Z
	M 154.00,102.00
	C 163.55,103.55 198.55,67.82 199.35,56.87 184.92,57.82 153.82,92.45 154.00,102.00 Z
	M 97.00,60.00
	C 95.24,69.06 104.64,84.57 113.00,88.00 114.76,78.94 105.36,63.43 97.00,60.00 Z
	M 151.31,61.00
	C 144.29,64.48 139.35,86.24 142.75,91.03 148.67,89.45 153.79,67.63 151.31,61.00 Z
	M 164.00,113.00
	C 173.06,114.76 188.57,105.36 192.00,97.00 182.94,95.24 167.43,104.64 164.00,113.00 Z
	M 60.61,101.00
	C 66.50,107.56 84.69,111.88 91.02,109.19 85.75,102.75 69.31,97.50 60.61,101.00 Z
	M 26.94,128.12
	C 39.88,135.50 73.25,135.75 91.31,128.00 72.62,120.50 43.12,119.75 26.94,128.12 Z
	M 164.91,128.09
	C 176.73,136.36 224.18,135.82 229.03,128.02 223.50,122.35 178.65,118.33 164.91,128.09 Z
	M 63.00,155.00
	C 72.06,156.76 87.57,147.36 91.00,139.00 81.94,137.24 66.43,146.64 63.00,155.00 Z
	M 164.00,142.00
	C 169.13,149.74 186.00,154.70 195.00,151.00 188.75,143.91 173.14,139.86 164.00,142.00 Z
	M 56.91,199.45
	C 75.78,193.75 100.27,165.91 102.00,154.00 89.27,158.09 60.64,180.91 56.91,199.45 Z
	M 154.00,154.00
	C 155.10,168.44 182.82,195.45 199.09,199.00 197.36,183.82 168.55,156.09 154.00,154.00 Z
	M 103.55,192.18
	C 110.89,186.35 114.64,171.18 112.18,160.55 105.64,165.00 101.36,183.09 103.55,192.18 Z
	M 142.00,164.00
	C 140.50,172.44 149.94,187.83 158.00,192.00 159.10,183.05 149.85,167.51 142.00,164.00 Z
	M 127.98,229.00
	C 134.45,221.00 137.69,179.90 128.06,165.02 119.36,180.27 121.64,221.55 127.98,229.00 Z" />
</svg>
