<?xml version="1.0" encoding="UTF-8" standalone="no"?>
<!DOCTYPE svg PUBLIC "-//W3C//DTD SVG 20010904//EN"
              "http://www.w3.org/TR/2001/REC-SVG-20010904/DTD/svg10.dtd">

<svg xmlns="http://www.w3.org/2000/svg"
     width="67.7607mm" height="67.7607mm"
     viewBox="0 0 256 256">
<path id="borderCircle" fill="#005005"
	d="M 113.00,0.21
	C 94.20,3.26 78.53,7.62 62.00,17.45
	32.83,34.81 11.81,63.11 3.63,96.00
	1.59,104.20 0.01,112.53 0.00,121.00
	-0.04,143.50 0.73,156.63 9.45,178.00
	24.60,215.11 57.26,242.73 96.00,252.37
	102.90,254.09 111.92,255.91 119.00,256.00
	147.84,256.33 166.16,253.89 192.00,239.69
	205.97,232.01 221.14,218.90 230.42,206.00
	239.11,193.92 245.69,182.24 250.25,168.00
	252.81,160.02 255.90,145.30 256.00,137.00
	256.12,126.34 256.34,116.57 254.57,106.00
	249.36,75.01 233.28,47.59 208.83,27.85
	198.36,19.39 186.60,12.66 174.00,7.95
	161.98,3.46 147.87,0.02 135.00,0.21
	135.00,0.21 113.00,0.21 113.00,0.21 Z" />
<path id="background" fill="#efebe9"
	d="M 118.00,12.28
	C 132.41,10.94 149.23,12.95 163.00,17.34
	177.04,21.83 190.69,28.75 202.00,38.29
	250.11,78.91 258.78,151.63 218.54,201.00
	206.62,215.63 194.76,224.43 178.00,232.75
	160.50,241.44 142.34,244.22 123.00,244.00
	115.66,243.91 104.21,241.71 97.00,239.87
	29.82,222.79 -5.31,147.10 20.45,84.00
	32.12,55.40 55.35,32.06 84.00,20.45
	96.12,15.54 105.33,14.15 118.00,12.28 Z" />
<path id="centerCircle" fill="#ff9d3f"
	d="M 130.16,96.32
	C 91.09,93.27 81.82,155.55 125.16,159.32 165.41,163.57 175.27,102.36 130.16,96.32 Z " />
	
<path id="lightBeams" fill="#ff9d3f"
	d="M 127.47,46.04
	C 120.94,46.94 119.68,84.88 127.47,86.98 134.20,86.48 135.01,48.88 127.47,46.04 Z
	M 186.56,68.56
	C 177.22,67.05 154.09,93.34 157.16,98.88 163.84,101.68 189.22,76.41 186.56,68.56 Z
	M 69.00,69.00
	C 68.30,79.35 89.13,100.30 99.00,100.00 100.43,90.26 79.57,69.26 69.00,69.00 Z
	M 110.31,81.08
	C 106.12,85.65 111.05,88.44 113.69,86.92 116.33,85.40 116.37,79.74 110.31,81.08 Z
	M 142.31,81.08
	C 138.12,85.65 143.05,88.44 145.69,86.92 148.33,85.40 148.37,79.74 142.31,81.08 Z
	M 83.31,106.08
	C 79.12,110.65 84.05,113.44 86.69,111.92 89.33,110.40 89.37,104.74 83.31,106.08 Z
	M 169.31,106.08
	C 165.12,110.65 170.05,113.44 172.69,111.92 175.33,110.40 175.37,104.74 169.31,106.08 Z
	M 45.09,127.97
	C 50.56,135.69 82.56,136.00 86.94,128.03 82.00,120.44 50.12,120.31 45.09,127.97 Z
	M 168.88,128.16
	C 174.22,136.61 208.73,134.95 210.91,128.00 208.67,120.83 173.43,119.25 168.88,128.16 Z
	M 83.31,141.08
	C 79.12,145.65 84.05,148.44 86.69,146.92 89.33,145.40 89.37,139.74 83.31,141.08 Z
	M 169.31,141.08
	C 165.12,145.65 170.05,148.44 172.69,146.92 175.33,145.40 175.37,139.74 169.31,141.08 Z
	M 69.00,187.00
	C 76.68,187.59 100.20,166.04 99.00,156.00 86.67,156.29 68.20,179.46 69.00,187.00 Z
	M 186.09,187.00
	C 188.76,182.98 169.15,156.34 157.30,157.73 155.30,166.70 179.41,188.23 186.09,187.00 Z
	M 108.31,168.08
	C 104.12,172.65 109.05,175.44 111.69,173.92 114.33,172.40 114.37,166.74 108.31,168.08 Z
	M 127.53,170.00
	C 120.54,170.25 119.90,210.94 127.44,211.03 134.35,211.36 135.23,170.73 127.53,170.00 Z
	M 144.31,168.08
	C 140.12,172.65 145.05,175.44 147.69,173.92 150.33,172.40 150.37,166.74 144.31,168.08 Z" />
</svg>
