<?xml version="1.0" encoding="UTF-8" standalone="no"?>
<!DOCTYPE svg PUBLIC "-//W3C//DTD SVG 20010904//EN"
              "http://www.w3.org/TR/2001/REC-SVG-20010904/DTD/svg10.dtd">

<svg xmlns="http://www.w3.org/2000/svg"
     width="67.7428mm" height="67.7428mm"
     viewBox="0 0 256 256">
<path id="borderCircle" fill="#005005"
        d="M 113.00,0.21
           C 94.20,3.26 78.53,7.62 62.00,17.45
             27.46,38.00 0.06,80.09 0.00,121.00
             -0.03,142.77 1.11,157.41 9.45,178.00
             24.44,214.99 57.45,242.77 96.00,252.37
             102.90,254.09 111.93,255.91 119.00,256.00
             147.84,256.33 166.16,253.89 192.00,239.69
             205.95,232.03 221.17,218.88 230.42,206.00
             260.96,163.48 265.34,108.85 239.13,63.00
             231.98,50.49 224.22,42.81 214.00,32.96
             202.01,21.42 189.57,13.77 174.00,7.95
             161.98,3.46 147.87,0.02 135.00,0.21
             135.00,0.21 113.00,0.21 113.00,0.21 Z" />
<path id="background" fill="#efebe9"
        d="M 120.00,12.42
           C 110.08,13.84 101.73,14.63 92.00,17.75
             66.94,25.78 44.59,42.77 30.44,65.00
             -8.99,126.94 17.61,210.46 87.00,236.58
             98.29,240.82 113.94,243.86 126.00,244.00
             142.98,244.19 162.70,240.15 178.00,232.74
             193.15,225.40 206.80,215.04 217.54,202.00
             259.12,151.48 250.53,74.84 198.00,35.37
             186.79,26.96 174.49,20.68 161.00,16.86
             149.33,13.55 132.02,10.96 120.00,12.42 Z" />  
<path id="head" fill="#ff9d3f"
        d="M 122.00,52.42
           C 111.73,53.98 89.42,57.30 95.23,72.85
             97.49,78.93 102.82,72.57 115.00,69.04
             128.58,65.10 142.91,68.58 149.62,82.00
             156.31,95.36 152.52,114.52 138.00,121.03
             129.84,124.69 123.64,121.14 119.51,125.43
             115.57,129.52 117.94,136.82 118.00,142.00
             118.04,145.38 117.57,160.56 118.57,162.57
             120.30,166.00 131.70,166.00 133.43,162.57
             133.43,162.57 134.99,145.00 134.99,145.00
             135.05,142.41 134.63,138.58 136.60,136.60
             137.94,135.24 146.05,133.78 149.00,132.54
             157.08,129.14 161.87,124.58 166.12,117.00
             174.39,102.24 172.76,76.83 160.68,64.43
             151.16,54.67 135.27,50.81 122.00,52.42 Z
           M 121.02,179.85
           C 119.13,180.95 118.24,181.19 116.98,183.19
             114.02,187.89 114.52,198.73 119.22,202.26
             121.58,204.03 125.16,204.12 128.00,203.96
             141.49,203.19 138.59,185.15 134.69,181.43
             131.27,178.16 125.19,178.70 121.02,179.85 Z" />
</svg>
