<?xml version="1.0" encoding="UTF-8" standalone="no"?>
<!DOCTYPE svg PUBLIC "-//W3C//DTD SVG 20010904//EN"
              "http://www.w3.org/TR/2001/REC-SVG-20010904/DTD/svg10.dtd">

<svg xmlns="http://www.w3.org/2000/svg"
     width="67.7607mm" height="67.7607mm"
     viewBox="0 0 256 256">
     
<path id="borderCircle" fill="#005005"
	d="M 113.00,0.21
	C 94.20,3.26 78.53,7.62 62.00,17.45
	32.83,34.81 11.81,63.11 3.63,96.00
	1.59,104.20 0.01,112.53 0.00,121.00
	-0.04,143.50 0.73,156.63 9.45,178.00
	24.60,215.11 57.26,242.73 96.00,252.37
	102.90,254.09 111.92,255.91 119.00,256.00
	147.84,256.33 166.16,253.89 192.00,239.69
	205.97,232.01 221.14,218.90 230.42,206.00
	239.11,193.92 245.69,182.24 250.25,168.00
	252.81,160.02 255.90,145.30 256.00,137.00
	256.12,126.34 256.34,116.57 254.57,106.00
	249.36,75.01 233.28,47.59 208.83,27.85
	198.36,19.39 186.60,12.66 174.00,7.95
	161.98,3.46 147.87,0.02 135.00,0.21
	135.00,0.21 113.00,0.21 113.00,0.21 Z" />
	
<path id="background" fill="#efebe9"
	d="M 118.00,12.28
	C 132.41,10.94 149.23,12.95 163.00,17.34
	177.04,21.83 190.69,28.75 202.00,38.29
	250.11,78.91 258.78,151.63 218.54,201.00
	206.62,215.63 194.76,224.43 178.00,232.75
	160.50,241.44 142.34,244.22 123.00,244.00
	115.66,243.91 104.21,241.71 97.00,239.87
	29.82,222.79 -5.31,147.10 20.45,84.00
	32.12,55.40 55.35,32.06 84.00,20.45
	96.12,15.54 105.33,14.15 118.00,12.28 Z" />
	
<path id="centerCircle" fill="#ff9d3f"
	d="M 130.16,96.32
	C 91.09,93.27 81.82,155.55 125.16,159.32 165.41,163.57 175.27,102.36 130.16,96.32 Z " />
	
<path id="lightBeams" fill="#ff9d3f"
	d="M 127.82,45.36
	C 119.01,51.71 122.92,86.30 127.59,86.99 133.65,86.36 134.91,49.09 127.82,45.36 Z
	M 69.00,69.00
	C 64.65,75.69 91.57,104.17 99.00,100.00 102.18,94.73 80.27,68.45 69.00,69.00 Z
	M 182.04,73.30
	C 174.65,71.27 158.07,87.53 160.00,95.96 168.06,98.53 185.22,81.81 182.04,73.30 Z
	M 110.31,81.08
	C 106.12,85.65 111.05,88.44 113.69,86.92 116.33,85.40 116.37,79.74 110.31,81.08 Z
	M 83.31,106.08
	C 79.12,110.65 84.05,113.44 86.69,111.92 89.33,110.40 89.37,104.74 83.31,106.08 Z
	M 45.19,127.94
	C 49.32,135.93 83.50,135.30 86.50,127.88 83.60,121.46 50.78,119.63 45.19,127.94 Z
	M 173.04,128.00
	C 176.07,135.56 201.66,136.40 204.78,128.09 201.96,120.22 176.48,119.64 173.04,128.00 Z
	M 83.31,141.08
	C 79.12,145.65 84.05,148.44 86.69,146.92 89.33,145.40 89.37,139.74 83.31,141.08 Z
	M 69.00,187.00
	C 74.05,188.78 99.53,168.77 99.00,156.00 84.04,157.17 66.91,181.85 69.00,187.00 Z
	M 160.04,160.04
	C 158.03,169.65 175.22,183.87 182.22,182.13 184.75,176.16 169.85,158.96 160.04,160.04 Z
	M 108.31,168.08
	C 104.12,172.65 109.05,175.44 111.69,173.92 114.33,172.40 114.37,166.74 108.31,168.08 Z
	M 128.00,173.03
	C 121.19,176.94 121.03,201.50 128.09,204.97 134.83,201.38 135.74,178.90 128.00,173.03 Z" />
	   
<path id="divider" fill="darkgreen"
	d="M 146.88,9.88
	C 146.88,9.88 102.43,243.70 102.43,243.70 102.43,243.78 108.40,245.09 108.18,245.00
	108.27,244.96 152.34,12.72 152.70,11.16 152.70,11.16 146.88,9.88 146.88,9.88 Z" />
</svg>
