<?xml version="1.0" encoding="UTF-8" standalone="no"?>
<!DOCTYPE svg PUBLIC "-//W3C//DTD SVG 20010904//EN"
              "http://www.w3.org/TR/2001/REC-SVG-20010904/DTD/svg10.dtd">

<svg xmlns="http://www.w3.org/2000/svg"
     width="67.7607mm" height="67.7607mm"
     viewBox="0 0 256 256">
     
<path id="borderCircle" fill="#005005"
	d="M 113.00,0.21
	C 94.20,3.26 78.53,7.62 62.00,17.45
	32.83,34.81 11.81,63.11 3.63,96.00
	1.59,104.20 0.01,112.53 0.00,121.00
	-0.04,143.50 0.73,156.63 9.45,178.00
	24.60,215.11 57.26,242.73 96.00,252.37
	102.90,254.09 111.92,255.91 119.00,256.00
	147.84,256.33 166.16,253.89 192.00,239.69
	205.97,232.01 221.14,218.90 230.42,206.00
	239.11,193.92 245.69,182.24 250.25,168.00
	252.81,160.02 255.90,145.30 256.00,137.00
	256.12,126.34 256.34,116.57 254.57,106.00
	249.36,75.01 233.28,47.59 208.83,27.85
	198.36,19.39 186.60,12.66 174.00,7.95
	161.98,3.46 147.87,0.02 135.00,0.21
	135.00,0.21 113.00,0.21 113.00,0.21 Z" />
	
<path id="background" fill="#efebe9"
	d="M 118.00,12.28
	C 132.41,10.94 149.23,12.95 163.00,17.34
	177.04,21.83 190.69,28.75 202.00,38.29
	250.11,78.91 258.78,151.63 218.54,201.00
	206.62,215.63 194.76,224.43 178.00,232.75
	160.50,241.44 142.34,244.22 123.00,244.00
	115.66,243.91 104.21,241.71 97.00,239.87
	29.82,222.79 -5.31,147.10 20.45,84.00
	32.12,55.40 55.35,32.06 84.00,20.45
	96.12,15.54 105.33,14.15 118.00,12.28 Z" />
	
<path id="centerCircle" fill="#ff9d3f"
	d="M 130.16,96.32
	C 91.09,93.27 81.82,155.55 125.16,159.32 165.41,163.57 175.27,102.36 130.16,96.32 Z " />
	
<path id="lightBeams" fill="#ff9d3f"
	d="M 128.19,91.06
	C 133.38,91.86 136.77,41.21 127.88,27.00 121.40,44.55 119.30,83.45 128.19,91.06 Z
	M 56.62,57.00
	C 58.10,71.27 93.82,102.49 102.00,102.00 101.84,88.39 64.24,55.10 56.62,57.00 Z
	M 97.00,60.00
	C 95.24,69.06 104.64,84.57 113.00,88.00 114.76,78.94 105.36,63.43 97.00,60.00 Z
	M 187.00,68.75
	C 174.68,72.27 160.48,81.37 157.00,99.00 169.47,94.57 182.42,86.10 187.00,68.75 Z
	M 142.31,81.08
	C 138.12,85.65 143.05,88.44 145.69,86.92 148.33,85.40 148.37,79.74 142.31,81.08 Z
	M 60.56,100.88
	C 66.90,108.39 82.12,112.14 91.19,109.69 92.78,103.00 63.61,96.36 60.56,100.88 Z
	M 169.31,106.08
	C 165.12,110.65 170.05,113.44 172.69,111.92 175.33,110.40 175.37,104.74 169.31,106.08 Z
	M 26.56,128.06
	C 26.08,134.55 89.99,136.54 90.62,128.00 83.91,121.63 38.12,118.89 26.56,128.06 Z
	M 168.75,128.06
	C 173.26,137.19 212.18,134.24 211.06,127.94 205.76,122.87 181.76,117.43 168.75,128.06 Z
	M 63.00,155.00
	C 72.06,156.76 87.57,147.36 91.00,139.00 81.94,137.24 66.43,146.64 63.00,155.00 Z
	M 169.31,141.08
	C 165.12,145.65 170.05,148.44 172.69,146.92 175.33,145.40 175.37,139.74 169.31,141.08 Z
	M 56.88,200.00
	C 59.13,203.19 104.95,166.27 102.00,154.00 92.78,153.74 56.60,186.01 56.88,200.00 Z
	M 186.00,188.00
	C 188.38,176.56 162.92,155.82 156.88,157.09 154.38,167.64 182.61,191.40 186.00,188.00 Z
	M 103.50,192.06
	C 111.12,185.88 115.00,169.43 112.06,160.19 105.94,161.22 98.80,190.94 103.50,192.06 Z
	M 144.31,168.08
	C 140.12,172.65 145.05,175.44 147.69,173.92 150.33,172.40 150.37,166.74 144.31,168.08 Z
	M 127.56,169.12
	C 118.94,176.36 121.44,212.51 127.50,211.31 135.06,214.12 134.94,169.45 127.56,169.12 Z" />
	   
<path id="divider" fill="darkgreen"
	d="M 146.88,9.88
	C 146.88,9.88 102.43,243.70 102.43,243.70 102.43,243.78 108.40,245.09 108.18,245.00
	108.27,244.96 152.34,12.72 152.70,11.16 152.70,11.16 146.88,9.88 146.88,9.88 Z" />
</svg>
