<?xml version="1.0" encoding="UTF-8" standalone="no"?>
<!DOCTYPE svg PUBLIC "-//W3C//DTD SVG 20010904//EN"
              "http://www.w3.org/TR/2001/REC-SVG-20010904/DTD/svg10.dtd">

<svg xmlns="http://www.w3.org/2000/svg"
     width="67.7607mm" height="67.7607mm"
     viewBox="0 0 256 256">
<path id="borderCircle" fill="#005005"
	d="M 113.00,0.21
	C 94.20,3.26 78.53,7.62 62.00,17.45
	32.83,34.81 11.81,63.11 3.63,96.00
	1.59,104.20 0.01,112.53 0.00,121.00
	-0.04,143.50 0.73,156.63 9.45,178.00
	24.60,215.11 57.26,242.73 96.00,252.37
	102.90,254.09 111.92,255.91 119.00,256.00
	147.84,256.33 166.16,253.89 192.00,239.69
	205.97,232.01 221.14,218.90 230.42,206.00
	239.11,193.92 245.69,182.24 250.25,168.00
	252.81,160.02 255.90,145.30 256.00,137.00
	256.12,126.34 256.34,116.57 254.57,106.00
	249.36,75.01 233.28,47.59 208.83,27.85
	198.36,19.39 186.60,12.66 174.00,7.95
	161.98,3.46 147.87,0.02 135.00,0.21
	135.00,0.21 113.00,0.21 113.00,0.21 Z" />
<path id="background" fill="#efebe9"
	d="M 118.00,12.28
	C 132.41,10.94 149.23,12.95 163.00,17.34
	177.04,21.83 190.69,28.75 202.00,38.29
	250.11,78.91 258.78,151.63 218.54,201.00
	206.62,215.63 194.76,224.43 178.00,232.75
	160.50,241.44 142.34,244.22 123.00,244.00
	115.66,243.91 104.21,241.71 97.00,239.87
	29.82,222.79 -5.31,147.10 20.45,84.00
	32.12,55.40 55.35,32.06 84.00,20.45
	96.12,15.54 105.33,14.15 118.00,12.28 Z" />
<path id="centerCircle" fill="#ff9d3f"
	d="M 130.16,96.32
	C 91.09,93.27 81.82,155.55 125.16,159.32 165.41,163.57 175.27,102.36 130.16,96.32 Z " />
	
<path id="lightBeams" fill="#ff9d3f"
	d="M 127.95,51.06
	C 120.71,50.91 119.46,82.77 127.95,82.95 136.48,82.87 135.53,50.96 127.95,51.06 Z
	M 73.19,73.31
	C 67.47,79.10 90.66,100.96 95.87,96.04 100.49,91.15 80.23,68.22 73.19,73.31 Z
	M 182.48,73.65
	C 176.13,68.78 155.15,91.30 160.02,96.00 164.85,101.11 186.91,80.91 182.48,73.65 Z
	M 51.00,128.06
	C 51.10,135.26 83.11,136.93 83.00,127.96 82.88,119.66 51.15,120.71 51.00,128.06 Z
	M 172.99,127.98
	C 172.72,135.31 204.48,136.53 204.88,127.94 204.41,119.52 172.87,121.03 172.99,127.98 Z
	M 95.89,160.02
	C 91.32,155.07 68.37,175.70 73.98,181.91 80.08,187.18 100.90,164.53 95.89,160.02 Z
	M 160.00,160.09
	C 154.98,165.83 177.52,187.24 181.96,182.04 187.53,177.19 166.79,154.50 160.00,160.09 Z
	M 128.03,173.00
	C 119.61,173.08 120.51,205.12 128.17,204.96 136.54,204.67 135.37,172.78 128.03,173.00 Z" />
</svg>
