<?xml version="1.0" encoding="UTF-8" standalone="no"?>
<!DOCTYPE svg PUBLIC "-//W3C//DTD SVG 20010904//EN"
              "http://www.w3.org/TR/2001/REC-SVG-20010904/DTD/svg10.dtd">

<svg xmlns="http://www.w3.org/2000/svg"
     width="67.7428mm" height="67.7428mm"
     viewBox="0 0 256 256">
<path id="borderCircle" fill="#005005"
        d="M 113.00,0.21
           C 94.20,3.26 78.53,7.62 62.00,17.45
             27.46,38.00 0.06,80.09 0.00,121.00
             -0.03,142.77 1.11,157.41 9.45,178.00
             24.44,214.99 57.45,242.77 96.00,252.37
             102.90,254.09 111.93,255.91 119.00,256.00
             147.84,256.33 166.16,253.89 192.00,239.69
             205.95,232.03 221.17,218.88 230.42,206.00
             260.96,163.48 265.34,108.85 239.13,63.00
             231.98,50.49 224.22,42.81 214.00,32.96
             202.01,21.42 189.57,13.77 174.00,7.95
             161.98,3.46 147.87,0.02 135.00,0.21
             135.00,0.21 113.00,0.21 113.00,0.21 Z" />
<path id="background" fill="#efebe9"
        d="M 120.00,12.42
           C 110.08,13.84 101.73,14.63 92.00,17.75
             66.94,25.78 44.59,42.77 30.44,65.00
             -8.99,126.94 17.61,210.46 87.00,236.58
             98.29,240.82 113.94,243.86 126.00,244.00
             142.98,244.19 162.70,240.15 178.00,232.74
             193.15,225.40 206.80,215.04 217.54,202.00
             259.12,151.48 250.53,74.84 198.00,35.37
             186.79,26.96 174.49,20.68 161.00,16.86
             149.33,13.55 132.02,10.96 120.00,12.42 Z" />  
<path id="head" fill="#ff9d3f"
        d="M 156.00,168.00
           C 166.96,157.04 173.63,150.03 175.71,134.00
             179.71,103.25 153.74,77.09 123.00,80.17
             92.88,83.18 73.26,113.25 82.04,142.00
             82.81,153.26 99.20,166.99 99.11,167.22
             99.11,167.22 88.70,180.00 88.70,180.00
             81.74,190.82 77.75,202.56 74.89,215.00
             74.18,218.09 72.02,227.28 73.19,230.06
             81.38,236.76 104.33,244.12 128.00,244.09
             149.27,244.06 171.21,237.33 181.84,231.00
             182.65,227.89 180.67,217.97 179.87,214.00
             176.28,199.05 168.60,177.46 156.00,168.00 Z" />

<path id="rightEye" fill="black"
        d="M 139.00,114.00
           C 139.00,114.00 138.00,115.00 138.00,115.00
             138.00,115.00 146.97,124.97 146.97,124.97
             146.97,124.97 138.00,135.00 138.00,135.00
             138.00,135.00 139.00,136.00 139.00,136.00
             139.00,136.00 148.99,127.98 148.99,127.98
             148.99,127.98 159.00,136.00 159.00,136.00
             159.00,136.00 160.00,135.00 160.00,135.00
             160.00,135.00 150.99,124.99 150.99,124.99
             150.99,124.99 160.00,115.00 160.00,115.00
             160.00,115.00 159.00,114.00 159.00,114.00
             159.00,114.00 149.00,123.02 149.00,123.02
             149.00,123.02 139.00,114.00 139.00,114.00 Z" />
	   
<path id="leftEye" fill="black"
        d="M 116.00,114.00
           C 116.00,114.00 117.00,115.00 117.00,115.00
             117.00,115.00 108.00,124.96 108.00,124.96
             108.00,124.96 117.00,135.00 117.00,135.00
             117.00,135.00 116.00,136.00 116.00,136.00
             116.00,136.00 106.00,127.13 106.00,127.13
             106.00,127.13 96.00,136.00 96.00,136.00
             96.00,136.00 95.00,135.00 95.00,135.00
             95.00,135.00 103.96,125.14 103.96,125.14
             103.96,125.14 95.00,115.00 95.00,115.00
             95.00,115.00 96.00,114.00 96.00,114.00
             96.00,114.00 106.00,123.13 106.00,123.13
             106.00,123.13 116.00,114.00 116.00,114.00 Z" />
</svg>
