<?xml version="1.0" encoding="UTF-8" standalone="no"?>
<!DOCTYPE svg PUBLIC "-//W3C//DTD SVG 20010904//EN"
              "http://www.w3.org/TR/2001/REC-SVG-20010904/DTD/svg10.dtd">

<svg xmlns="http://www.w3.org/2000/svg"
     width="67.7428mm" height="67.7428mm"
     viewBox="0 0 256 256">
<path id="borderCircle" fill="#005005"
        d="M 113.00,0.21
           C 94.20,3.26 78.53,7.62 62.00,17.45
             27.46,38.00 0.06,80.09 0.00,121.00
             -0.03,142.77 1.11,157.41 9.45,178.00
             24.44,214.99 57.45,242.77 96.00,252.37
             102.90,254.09 111.93,255.91 119.00,256.00
             147.84,256.33 166.16,253.89 192.00,239.69
             205.95,232.03 221.17,218.88 230.42,206.00
             260.96,163.48 265.34,108.85 239.13,63.00
             231.98,50.49 224.22,42.81 214.00,32.96
             202.01,21.42 189.57,13.77 174.00,7.95
             161.98,3.46 147.87,0.02 135.00,0.21
             135.00,0.21 113.00,0.21 113.00,0.21 Z" />
<path id="background" fill="#efebe9"  
        d="M 120.00,12.42
           C 110.08,13.84 101.73,14.63 92.00,17.75
             66.94,25.78 44.59,42.77 30.44,65.00
             -8.99,126.94 17.61,210.46 87.00,236.58
             98.29,240.82 113.94,243.86 126.00,244.00
             142.98,244.19 162.70,240.15 178.00,232.74
             193.15,225.40 206.80,215.04 217.54,202.00
             259.12,151.48 250.53,74.84 198.00,35.37
             186.79,26.96 174.49,20.68 161.00,16.86
             149.33,13.55 132.02,10.96 120.00,12.42 Z" />  
<path id="head" fill="#ff9d3f"
        d="M 175.00,118.89
           C 178.15,130.09 174.87,144.44 168.76,154.00
             168.76,154.00 161.23,163.58 161.23,163.58
             157.81,167.93 159.71,170.18 158.20,175.00
             156.45,180.58 151.19,185.11 146.00,187.48
             132.53,193.65 110.05,192.48 100.42,179.99
             95.36,173.42 98.50,168.94 95.44,164.42
             95.44,164.42 87.24,154.00 87.24,154.00
             81.19,144.42 77.86,130.07 81.00,119.00
             74.15,121.28 65.30,124.18 58.00,123.29
             48.66,122.16 46.22,116.05 50.40,108.00
             51.47,105.94 53.00,103.80 54.47,102.00
             63.81,90.50 84.35,78.33 99.00,75.46
             103.52,74.78 108.50,74.00 112.99,75.46
             119.41,77.18 117.48,79.84 126.00,80.00
             128.36,80.04 132.78,80.16 134.91,79.44
             138.52,78.24 139.42,75.50 146.00,74.71
             157.19,73.35 173.55,80.82 183.00,86.45
             190.59,90.98 199.72,98.51 204.44,106.00
             206.75,109.67 208.95,114.63 206.54,118.89
             201.36,127.74 182.45,121.48 175.00,118.89 Z" />
	   
<path id="rightEye" fill="black"
        d="M 139.00,114.00
           C 139.00,114.00 138.00,115.00 138.00,115.00
             138.00,115.00 146.97,124.97 146.97,124.97
             146.97,124.97 138.00,135.00 138.00,135.00
             138.00,135.00 139.00,136.00 139.00,136.00
             139.00,136.00 148.99,127.98 148.99,127.98
             148.99,127.98 159.00,136.00 159.00,136.00
             159.00,136.00 160.00,135.00 160.00,135.00
             160.00,135.00 150.99,124.99 150.99,124.99
             150.99,124.99 160.00,115.00 160.00,115.00
             160.00,115.00 159.00,114.00 159.00,114.00
             159.00,114.00 149.00,123.02 149.00,123.02
             149.00,123.02 139.00,114.00 139.00,114.00 Z" />
	   
<path id="leftEye" fill="black"
        d="M 116.00,114.00
           C 116.00,114.00 117.00,115.00 117.00,115.00
             117.00,115.00 108.00,124.96 108.00,124.96
             108.00,124.96 117.00,135.00 117.00,135.00
             117.00,135.00 116.00,136.00 116.00,136.00
             116.00,136.00 106.00,127.13 106.00,127.13
             106.00,127.13 96.00,136.00 96.00,136.00
             96.00,136.00 95.00,135.00 95.00,135.00
             95.00,135.00 103.96,125.14 103.96,125.14
             103.96,125.14 95.00,115.00 95.00,115.00
             95.00,115.00 96.00,114.00 96.00,114.00
             96.00,114.00 106.00,123.13 106.00,123.13
             106.00,123.13 116.00,114.00 116.00,114.00 Z" />

</svg>
