<?xml version="1.0" encoding="UTF-8" standalone="no"?>
<!DOCTYPE svg PUBLIC "-//W3C//DTD SVG 20010904//EN"
              "http://www.w3.org/TR/2001/REC-SVG-20010904/DTD/svg10.dtd">

<svg xmlns="http://www.w3.org/2000/svg"
     width="67.7428mm" height="67.7428mm"
     viewBox="0 0 256 256">
<path id="borderCircle" fill="#005005"
        d="M 113.00,0.21
           C 94.20,3.26 78.53,7.62 62.00,17.45
             27.46,38.00 0.06,80.09 0.00,121.00
             -0.03,142.77 1.11,157.41 9.45,178.00
             24.44,214.99 57.45,242.77 96.00,252.37
             102.90,254.09 111.93,255.91 119.00,256.00
             147.84,256.33 166.16,253.89 192.00,239.69
             205.95,232.03 221.17,218.88 230.42,206.00
             260.96,163.48 265.34,108.85 239.13,63.00
             231.98,50.49 224.22,42.81 214.00,32.96
             202.01,21.42 189.57,13.77 174.00,7.95
             161.98,3.46 147.87,0.02 135.00,0.21
             135.00,0.21 113.00,0.21 113.00,0.21 Z" />
<path id="background" fill="#efebe9"
        d="M 120.00,12.42
           C 110.08,13.84 101.73,14.63 92.00,17.75
             66.94,25.78 44.59,42.77 30.44,65.00
             -8.99,126.94 17.61,210.46 87.00,236.58
             98.29,240.82 113.94,243.86 126.00,244.00
             142.98,244.19 162.70,240.15 178.00,232.74
             193.15,225.40 206.80,215.04 217.54,202.00
             259.12,151.48 250.53,74.84 198.00,35.37
             186.79,26.96 174.49,20.68 161.00,16.86
             149.33,13.55 132.02,10.96 120.00,12.42 Z" />  
<path id="head" fill="#ff9d3f"
        d="M 77.00,145.00
           C 77.00,145.00 53.06,149.81 44.06,154.19
             44.06,154.19 71.09,148.21 78.81,149.12
             78.81,149.59 79.88,151.56 81.00,152.62
             73.36,156.36 59.50,166.44 52.88,173.06
             52.69,174.12 74.27,158.82 84.00,156.00
             89.24,165.17 94.78,164.53 101.00,168.69
             104.85,171.28 106.13,173.72 111.00,175.90
             121.40,181.12 137.72,180.97 148.00,175.90
             154.37,172.47 153.97,170.33 157.32,167.84
             161.70,164.60 166.95,165.20 172.00,156.00
             183.09,158.83 195.13,168.00 202.09,172.82
             194.00,164.39 183.55,155.50 174.91,153.03
             176.13,151.93 176.91,150.93 176.91,149.19
             181.06,147.02 207.38,153.44 212.00,154.00
             207.06,150.31 181.80,145.59 179.00,145.00
             180.80,139.45 182.49,132.70 180.28,127.00
             178.60,122.66 172.93,115.94 173.02,108.42
             173.02,108.42 175.38,99.00 175.38,99.00
             177.23,91.83 177.90,84.02 175.38,77.00
             169.37,61.96 156.31,75.68 153.00,87.00
             137.19,76.19 118.16,78.71 102.00,87.00
             99.88,79.73 88.78,62.66 81.22,74.11
             80.45,75.28 79.91,76.67 79.57,78.00
             77.09,85.15 77.87,92.82 79.57,100.00
             80.41,102.99 82.32,107.25 82.35,110.00
             82.44,118.16 77.51,122.16 75.73,127.00
             73.83,132.17 75.36,139.93 77.00,145.00 Z" />
<path id="rightEye" fill="black"
        d="M 139.00,114.00
           C 139.00,114.00 138.00,115.00 138.00,115.00
             138.00,115.00 146.97,124.97 146.97,124.97
             146.97,124.97 138.00,135.00 138.00,135.00
             138.00,135.00 139.00,136.00 139.00,136.00
             139.00,136.00 148.99,127.98 148.99,127.98
             148.99,127.98 159.00,136.00 159.00,136.00
             159.00,136.00 160.00,135.00 160.00,135.00
             160.00,135.00 150.99,124.99 150.99,124.99
             150.99,124.99 160.00,115.00 160.00,115.00
             160.00,115.00 159.00,114.00 159.00,114.00
             159.00,114.00 149.00,123.02 149.00,123.02
             149.00,123.02 139.00,114.00 139.00,114.00 Z" />
<path id="leftEye" fill="black"
        d="M 116.00,114.00
           C 116.00,114.00 117.00,115.00 117.00,115.00
             117.00,115.00 108.00,124.96 108.00,124.96
             108.00,124.96 117.00,135.00 117.00,135.00
             117.00,135.00 116.00,136.00 116.00,136.00
             116.00,136.00 106.00,127.13 106.00,127.13
             106.00,127.13 96.00,136.00 96.00,136.00
             96.00,136.00 95.00,135.00 95.00,135.00
             95.00,135.00 103.96,125.14 103.96,125.14
             103.96,125.14 95.00,115.00 95.00,115.00
             95.00,115.00 96.00,114.00 96.00,114.00
             96.00,114.00 106.00,123.13 106.00,123.13
             106.00,123.13 116.00,114.00 116.00,114.00 Z" />

</svg>
