<?xml version="1.0" encoding="UTF-8" standalone="no"?>
<!DOCTYPE svg PUBLIC "-//W3C//DTD SVG 20010904//EN"
              "http://www.w3.org/TR/2001/REC-SVG-20010904/DTD/svg10.dtd">

<svg xmlns="http://www.w3.org/2000/svg"
     width="67.7428mm" height="67.7428mm"
     viewBox="0 0 256 256">
<path id="borderCircle" fill="#005005"
        d="M 113.00,0.21
           C 94.20,3.26 78.53,7.62 62.00,17.45
             27.46,38.00 0.06,80.09 0.00,121.00
             -0.03,142.77 1.11,157.41 9.45,178.00
             24.44,214.99 57.45,242.77 96.00,252.37
             102.90,254.09 111.93,255.91 119.00,256.00
             147.84,256.33 166.16,253.89 192.00,239.69
             205.95,232.03 221.17,218.88 230.42,206.00
             260.96,163.48 265.34,108.85 239.13,63.00
             231.98,50.49 224.22,42.81 214.00,32.96
             202.01,21.42 189.57,13.77 174.00,7.95
             161.98,3.46 147.87,0.02 135.00,0.21
             135.00,0.21 113.00,0.21 113.00,0.21 Z" />
<path id="background" fill="#efebe9"
        d="M 120.00,12.42
           C 110.08,13.84 101.73,14.63 92.00,17.75
             66.94,25.78 44.59,42.77 30.44,65.00
             -8.99,126.94 17.61,210.46 87.00,236.58
             98.29,240.82 113.94,243.86 126.00,244.00
             142.98,244.19 162.70,240.15 178.00,232.74
             193.15,225.40 206.80,215.04 217.54,202.00
             259.12,151.48 250.53,74.84 198.00,35.37
             186.79,26.96 174.49,20.68 161.00,16.86
             149.33,13.55 132.02,10.96 120.00,12.42 Z" />  
<path id="head" fill="#ff9d3f"
        d="M 78.82,103.36
           C 77.07,102.95 77.60,96.67 72.83,90.87
             69.07,86.92 65.05,91.38 65.35,94.13
             63.67,103.66 68.61,105.16 67.09,108.45
             63.44,109.19 46.93,135.11 60.78,136.62
             65.17,137.22 71.20,134.01 74.12,134.81
             77.72,135.47 79.56,139.53 81.69,142.72
             80.94,138.52 80.13,136.45 76.42,133.98
             78.07,133.43 79.15,132.51 80.34,132.66
             84.70,133.19 88.91,137.62 91.44,142.19
             89.97,136.37 87.37,134.32 82.20,131.64
             85.26,130.89 86.77,128.09 88.47,128.19
             89.66,128.99 94.82,133.80 102.53,134.84
             103.76,135.47 93.28,141.87 96.75,143.17
             104.49,144.39 105.96,140.52 113.00,136.96
             112.88,137.84 138.26,139.06 148.00,138.04
             149.97,138.64 141.76,143.13 144.65,145.17
             154.43,145.39 160.86,139.51 167.17,132.83
             170.66,131.45 174.55,131.55 178.00,125.00
             181.48,126.50 186.83,128.44 189.82,130.82
             200.54,139.33 198.63,147.90 188.91,156.64
             180.68,164.03 160.19,168.67 149.19,169.22
             153.88,171.04 163.14,169.90 168.00,169.04
             181.24,166.85 200.80,159.83 201.90,144.00
             202.55,134.73 197.30,128.66 190.00,123.75
             190.00,123.75 179.99,118.71 179.99,118.71
             177.78,116.53 178.60,112.79 177.17,110.00
             175.23,106.23 172.29,103.02 169.00,100.38
             148.53,83.92 111.43,87.47 91.56,103.75
             91.87,101.44 93.94,94.98 93.69,92.78
             93.03,87.09 88.68,86.33 84.33,90.31
             81.26,93.42 81.29,98.66 78.82,103.36 Z" />
<path id="leftEye" fill="black"
        d="M 73.00,113.97
           C 71.63,112.39 73.95,110.81 74.97,111.98
             74.97,111.98 78.02,115.02 78.02,115.02
             78.02,115.02 80.98,111.98 80.98,111.98
             81.72,111.02 84.40,112.10 82.98,113.95
             82.98,113.95 79.00,116.98 79.00,116.98
             79.00,116.98 82.94,120.00 82.94,120.00
             84.30,121.44 82.07,123.08 81.00,121.95
             81.00,121.95 78.11,118.97 78.11,118.97
             78.11,118.97 74.98,121.97 74.98,121.97
             73.31,123.43 71.88,120.97 73.00,120.00
             73.00,120.00 76.98,117.02 76.98,117.02
             76.98,117.02 73.00,113.97 73.00,113.97 Z" />

</svg>
